<svg xmlns="http://www.w3.org/2000/svg" viewBox="0 0 600 166" role="img" aria-labelledby="title"><title id="title">x is less than negative one or greater than one half</title><path d="M20 107H580" stroke="#33a9d5" stroke-width="1.6"/><path d="M20 107l16 -5v10z M580 107l-16 -5v10z" fill="#33a9d5"/><path d="M50.0 94v26" stroke="#33a9d5" stroke-width="1.6"/><text x="50.0" y="151" font-family="Times New Roman,serif" font-size="27" text-anchor="middle">−3</text><path d="M112.5 94v26" stroke="#33a9d5" stroke-width="1.6"/><text x="112.5" y="151" font-family="Times New Roman,serif" font-size="27" text-anchor="middle">−2</text><path d="M175.0 94v26" stroke="#33a9d5" stroke-width="1.6"/><text x="175.0" y="151" font-family="Times New Roman,serif" font-size="27" text-anchor="middle">−1</text><path d="M237.5 94v26" stroke="#33a9d5" stroke-width="1.6"/><text x="237.5" y="151" font-family="Times New Roman,serif" font-size="27" text-anchor="middle">0</text><path d="M300.0 94v26" stroke="#33a9d5" stroke-width="1.6"/><text x="300.0" y="151" font-family="Times New Roman,serif" font-size="27" text-anchor="middle">1</text><path d="M362.5 94v26" stroke="#33a9d5" stroke-width="1.6"/><text x="362.5" y="151" font-family="Times New Roman,serif" font-size="27" text-anchor="middle">2</text><path d="M425.0 94v26" stroke="#33a9d5" stroke-width="1.6"/><text x="425.0" y="151" font-family="Times New Roman,serif" font-size="27" text-anchor="middle">3</text><path d="M487.5 94v26" stroke="#33a9d5" stroke-width="1.6"/><text x="487.5" y="151" font-family="Times New Roman,serif" font-size="27" text-anchor="middle">4</text><path d="M550.0 94v26" stroke="#33a9d5" stroke-width="1.6"/><text x="550.0" y="151" font-family="Times New Roman,serif" font-size="27" text-anchor="middle">5</text><path d="M28 70H175 M268.75 70H576" stroke="#202020" stroke-width="1.5"/><path d="M28 70l12 -4v8z M576 70l-12 -4v8z" fill="#202020"/><g fill="white" stroke="#202020" stroke-width="1.5"><circle cx="175" cy="70" r="5"/><circle cx="268.75" cy="70" r="5"/></g><g font-family="Times New Roman,serif" font-size="26"><text x="65" y="48">x &lt; −1</text><text x="377" y="45">x &gt;</text><text x="446" y="25">1</text><path d="M441 31h24" stroke="#202020"/><text x="446" y="57">2</text></g></svg>